<svg xmlns="http://www.w3.org/2000/svg" viewBox="0 0 513.97 422.88"><defs><style>.cls-1{opacity:0.3;}.cls-2{fill:#297ce2;}.cls-3{fill:none;stroke:#35cfff;stroke-miterlimit:10;stroke-width:5px;}</style></defs><g id="Layer_2" data-name="Layer 2"><g id="Layer_1-2" data-name="Layer 1"><g class="cls-1"><path class="cls-2" d="M132.77,140.16a138.55,138.55,0,0,0,55.82-3.67c-4.87-28.31-7.68-56-6.87-80.46C181.72,56,148.87,79.63,132.77,140.16Z"/><path class="cls-2" d="M130,151.62c-4.54,21.3-7,46.65-5.52,76.52,40.8,3.72,84.11-4.69,84.11-4.69h0c-6.78-24.27-13.18-50.25-18-76C179.46,150.05,154.5,154.78,130,151.62Z"/><path class="cls-2" d="M388.49,108.94c11.6-19.11,8.3-40.31,8.28-40.49A206.16,206.16,0,0,0,359.89,37,140.85,140.85,0,0,0,336.2,26.87c2.23,5.71,4.06,17.3-5.09,35.28C362.33,78.72,380.76,99.07,388.49,108.94Z"/><path class="cls-2" d="M268,117.16c-12.13,6.42-41.08,21-65.45,27.33C207,165.25,213,190,221.35,219c32.77-4.76,88-35.47,88-35.49C295.24,156.29,281.21,134.52,268,117.16Z"/><path class="cls-2" d="M382.56,119.18A186.64,186.64,0,0,0,326.31,70c-5.51,7.42-18.92,22.41-47.61,40.92A436.87,436.87,0,0,1,320.63,176C356.4,157.66,382.54,119.21,382.56,119.18Z"/><path class="cls-2" d="M346,269.82c-10.81-38.93-25.53-66.53-31.17-76.3-47.29,29.17-89.91,37.25-90,37.27,7.08,24,15.64,50.78,26,80.6C250.84,311.36,309,295.59,346,269.82Z"/><path class="cls-2" d="M396.11,119.67h0a260.82,260.82,0,0,1,35.19,74.89h0A85.46,85.46,0,0,0,445.73,158a209.48,209.48,0,0,0-37.24-75.74C405.18,111.2,396.11,119.67,396.11,119.67Z"/><path class="cls-2" d="M429.05,237.4A124.19,124.19,0,0,0,427.66,219c-.05.06-24.32,31-67.91,56.51,1.48,5.71,2.35,10,2.86,13.12A472.17,472.17,0,0,0,429.05,237.4Z"/><path class="cls-2" d="M126.78,372.81c6.29,1.22,31.19-3,31.19-3h0a241.85,241.85,0,0,1-21.18-37.72h0s-34-3.14-57.32-19.22h0A178.27,178.27,0,0,0,126.78,372.81Z"/><path class="cls-2" d="M249.89,344.6s-2.92-7-7.53-19h0s-41.56,11.47-91.52,8.2a303.55,303.55,0,0,0,19.24,34.8A623.39,623.39,0,0,0,249.89,344.6Z"/><path class="cls-2" d="M438.08,228.3c4.16-2.21,14.23-14.93,14.47-15.24,0-.46,0-.92,0-1.38a214.81,214.81,0,0,0-1.95-28.87c-.16.42-6.4,16.5-15.5,27.14h0A182.62,182.62,0,0,1,438.08,228.3Z"/><path class="cls-2" d="M367.94,321.61c4.82,48.21-4.29,61.94-4.6,62.4a207.08,207.08,0,0,0,46.22-44.34c.95-1.66,14.9-26.71,17.87-63.44C427.43,276.23,404.74,298.3,367.94,321.61Z"/><path class="cls-2" d="M426,314.64a210,210,0,0,0,21.32-55.71L436,268.87S437,294,426,314.64Z"/><path class="cls-2" d="M274.12,370.67c18.09,36.79,27.63,42,27.94,42.17a200.19,200.19,0,0,0,46-19.15c15.87-20.65,9.5-65.34,9.5-65.34S312.75,356,274.12,370.67Z"/><path class="cls-2" d="M262.94,374.81c-33.09,12-58,18.18-67.93,20.39,0,0,14.77,16.37,46.51,24.7,2.42.08,4.86.13,7.3.13a200.28,200.28,0,0,0,40.12-4c-12.16-12.32-26-41.17-26-41.17Z"/><path class="cls-2" d="M162.64,400.52a199.23,199.23,0,0,0,48.71,16c-.23-.1-22.7-10.31-23.81-19.47C179.84,398.83,168.2,401.18,162.64,400.52Z"/><path class="cls-2" d="M352,295.12c-.92-4.63-1.93-9.14-3-13.54-.05,0-50.68,31.14-93.89,40l-.73.22c2.07,5.87,4.19,11.83,6.39,17.93C305.36,325.1,352,295.14,352,295.12Z"/><path class="cls-2" d="M356.5,264.1s43-24.92,68.17-59.9c-8.47-33.65-26.91-63.26-34.58-74.61-26,37-64.28,57.18-64.28,57.18h0c16.25,35.27,25.46,60.29,30.69,77.33Z"/><path class="cls-2" d="M72.09,295.53c.31.37,15.41,18.15,59.58,24.07a291.84,291.84,0,0,1-18-81.33h0c-35-5.77-53.84-23.8-53.84-23.8A207.14,207.14,0,0,0,72.09,295.53Z"/><path class="cls-2" d="M125.08,240.17c.94,13.44,4.79,44.06,20.33,81.35.07,0,47.54,6.18,92.25-7.13l.46-.11c-7.45-20.16-17.41-48.77-26.69-80.94h0C173.59,243.5,125.08,240.17,125.08,240.17Z"/><path class="cls-2" d="M83.34,132.56c-10.26,18.34-18.37,40.63-22,67.5C81.26,222.3,113,226.2,113,226.2a305.13,305.13,0,0,1,7.22-76C111.38,148.77,92.34,144.39,83.34,132.56Z"/><path class="cls-2" d="M202.67,45.62c26.07,11.77,49.28,33.26,68.19,55.66C280.1,96.2,301.81,83,315.72,64.45,258.33,36.65,202.67,45.62,202.67,45.62Z"/><path class="cls-2" d="M212.36,37c45.19-1.72,80.88,7.37,108.18,19.89,3.53-5.57,12-19.34,2.47-33.64C264.23,10.28,212.36,37,212.36,37Z"/><path class="cls-2" d="M89.64,122.18c3.14,4.66,12.11,14.33,33.39,16.64,8-28.93,22-59.49,46.44-82.79C169.47,56,122.26,72.37,89.64,122.18Z"/><path class="cls-2" d="M200.27,133.28c11.73-3,39.54-11.22,60.4-25.44C221.6,60,191.53,51.13,191.53,51.13S188.62,74.08,200.27,133.28Z"/><path class="cls-2" d="M248.82,3.34q-6,0-11.82.35l17.43-.27C252.56,3.37,250.7,3.34,248.82,3.34Z"/><path class="cls-2" d="M316.36,15.07A199.25,199.25,0,0,0,258.13,3.55c-6.87,1-31.43,5.9-53.74,28.59C245.13,12.89,295.62,13.72,316.36,15.07Z"/><path class="cls-2" d="M192.14,32.75s21-21.61,44.53-29a199,199,0,0,0-35.86,5.46C200.05,9.61,189.67,15.89,192.14,32.75Z"/><path class="cls-2" d="M188.93,12.49l11.49-3.22C196.55,10.23,192.71,11.3,188.93,12.49Z"/><path class="cls-2" d="M181.22,34.93s0-14.17,7.64-22.42A200.4,200.4,0,0,0,152.78,27.9l3.9-.34S173.25,29.43,181.22,34.93Z"/><path class="cls-2" d="M136.18,38.06a205.69,205.69,0,0,0-29.63,24.5c14.74-8.72,40.84-21.86,64.27-21.89C170.82,40.67,155.07,26.92,136.18,38.06Z"/><path class="cls-2" d="M200.86,9.14l-.44.13.39-.1Z"/><path class="cls-2" d="M188.86,12.51h0l.07,0Z"/><path class="cls-2" d="M236.72,3.7h-.05l.33,0Z"/><path class="cls-2" d="M260,3.34l-5.58.08,3.7.13C259.35,3.38,260,3.34,260,3.34Z"/><path class="cls-2" d="M109.12,363.33a192,192,0,0,1-38.67-55.52h0s-4.36-4.11-5.67-6.64A208.86,208.86,0,0,0,109.12,363.33Z"/><path class="cls-2" d="M61.84,285.52h0c-7.08-22.36-11-48.77-9-79.51h0c-3.18-4.24-6.77-14.41-6.85-14.65q-1,10-1,20.32a212.73,212.73,0,0,0,8.63,60.17C53.78,272.05,57.21,280.47,61.84,285.52Z"/><path class="cls-2" d="M78.28,125.59c-2-3.08-4.5-9.54-3.52-22.24a209.45,209.45,0,0,0-23.37,56.7c-2.87,22.67,3.32,28.68,3.32,28.68A186.14,186.14,0,0,1,78.28,125.59Z"/><path class="cls-2" d="M84.91,115.22c16.2-23.59,40.72-47.82,77.82-65.93,0,0-44.27,4.3-74.54,36.16C88,85.77,78.18,102.6,84.91,115.22Z"/><polygon class="cls-2" points="202.56 45.62 202.67 45.62 202.63 45.56 202.56 45.62"/><polygon class="cls-2" points="88.18 85.46 88.19 85.45 88.19 85.44 88.18 85.46"/><path class="cls-2" d="M74.76,103.34h0v0Z"/><path class="cls-2" d="M187.54,397c4.37-1,7.47-1.84,7.47-1.84L187.54,397Z"/><path class="cls-2" d="M409.51,339.76l.11-.16-.06.07Z"/><path class="cls-2" d="M425.76,315l.2-.36c-.1.16-.19.33-.28.49Z"/><path class="cls-2" d="M497.13,101.28C471.17,77.81,423.75,91,423.75,91l5.3,8.63c36.57-6.09,54.18,3.63,54.18,3.63C520,123.53,490,174.43,490,174.43a92.73,92.73,0,0,1-6.92,12.44,16.56,16.56,0,0,0-18.88,24.86c-6.76,8-12.05,13.5-12.05,13.5-39.36,41.87-74.07,63.57-74.07,63.57-65.62,48.44-133.69,70.52-133.69,70.52-50.06,18.93-107.86,25.8-108.38,25.86h0c-.73.08-49.1,5.41-85.73-6.73,0-.24,0-.49,0-.73a16.26,16.26,0,0,0-25.35-12.86A43.39,43.39,0,0,1,14.1,351s-14.1-28.91,31-77.31l-2.76-10.38S9.2,292.17,3.06,331.42c0,0-5.13,23.17,15.56,41.59a16.26,16.26,0,0,0,28.32,15.16c12.47,3.94,28.38,6.56,48.67,7,0,0,30.81,1.42,52.53-2.36.37,0,65.45-8.15,129-36.28,0,0,56.3-23.87,98.06-53.94,0,0,45.66-28.54,75.29-61.49,8.16-8.31,15.18-16,21.21-23.17a16.55,16.55,0,0,0,19.37-25.45c15.92-23.82,17.47-36.24,17.47-36.24C519.21,117.27,497.13,101.28,497.13,101.28Z"/></g><path class="cls-3" d="M132.77,140.16a138.55,138.55,0,0,0,55.82-3.67c-4.87-28.31-7.68-56-6.87-80.46C181.72,56,148.87,79.63,132.77,140.16Z"/><path class="cls-3" d="M130,151.62c-4.54,21.3-7,46.65-5.52,76.52,40.8,3.72,84.11-4.69,84.11-4.69h0c-6.78-24.27-13.18-50.25-18-76C179.46,150.05,154.5,154.78,130,151.62Z"/><path class="cls-3" d="M388.49,108.94c11.6-19.11,8.3-40.31,8.28-40.49A206.16,206.16,0,0,0,359.89,37,140.85,140.85,0,0,0,336.2,26.87c2.23,5.71,4.06,17.3-5.09,35.28C362.33,78.72,380.76,99.07,388.49,108.94Z"/><path class="cls-3" d="M268,117.16c-12.13,6.42-41.08,21-65.45,27.33C207,165.25,213,190,221.35,219c32.77-4.76,88-35.47,88-35.49C295.24,156.29,281.21,134.52,268,117.16Z"/><path class="cls-3" d="M382.56,119.18A186.64,186.64,0,0,0,326.31,70c-5.51,7.42-18.92,22.41-47.61,40.92A436.87,436.87,0,0,1,320.63,176C356.4,157.66,382.54,119.21,382.56,119.18Z"/><path class="cls-3" d="M346,269.82c-10.81-38.93-25.53-66.53-31.17-76.3-47.29,29.17-89.91,37.25-90,37.27,7.08,24,15.64,50.78,26,80.6C250.84,311.36,309,295.59,346,269.82Z"/><path class="cls-3" d="M396.11,119.67h0a260.82,260.82,0,0,1,35.19,74.89h0A85.46,85.46,0,0,0,445.73,158a209.48,209.48,0,0,0-37.24-75.74C405.18,111.2,396.11,119.67,396.11,119.67Z"/><path class="cls-3" d="M429.05,237.4A124.19,124.19,0,0,0,427.66,219c-.05.06-24.32,31-67.91,56.51,1.48,5.71,2.35,10,2.86,13.12A472.17,472.17,0,0,0,429.05,237.4Z"/><path class="cls-3" d="M126.78,372.81c6.29,1.22,31.19-3,31.19-3h0a241.85,241.85,0,0,1-21.18-37.72h0s-34-3.14-57.32-19.22h0A178.27,178.27,0,0,0,126.78,372.81Z"/><path class="cls-3" d="M249.89,344.6s-2.92-7-7.53-19h0s-41.56,11.47-91.52,8.2a303.55,303.55,0,0,0,19.24,34.8A623.39,623.39,0,0,0,249.89,344.6Z"/><path class="cls-3" d="M438.08,228.3c4.16-2.21,14.23-14.93,14.47-15.24,0-.46,0-.92,0-1.38a214.81,214.81,0,0,0-1.95-28.87c-.16.42-6.4,16.5-15.5,27.14h0A182.62,182.62,0,0,1,438.08,228.3Z"/><path class="cls-3" d="M367.94,321.61c4.82,48.21-4.29,61.94-4.6,62.4a207.08,207.08,0,0,0,46.22-44.34c.95-1.66,14.9-26.71,17.87-63.44C427.43,276.23,404.74,298.3,367.94,321.61Z"/><path class="cls-3" d="M426,314.64a210,210,0,0,0,21.32-55.71L436,268.87S437,294,426,314.64Z"/><path class="cls-3" d="M274.12,370.67c18.09,36.79,27.63,42,27.94,42.17a200.19,200.19,0,0,0,46-19.15c15.87-20.65,9.5-65.34,9.5-65.34S312.75,356,274.12,370.67Z"/><path class="cls-3" d="M262.94,374.81c-33.09,12-58,18.18-67.93,20.39,0,0,14.77,16.37,46.51,24.7,2.42.08,4.86.13,7.3.13a200.28,200.28,0,0,0,40.12-4c-12.16-12.32-26-41.17-26-41.17Z"/><path class="cls-3" d="M162.64,400.52a199.23,199.23,0,0,0,48.71,16c-.23-.1-22.7-10.31-23.81-19.47C179.84,398.83,168.2,401.18,162.64,400.52Z"/><path class="cls-3" d="M352,295.12c-.92-4.63-1.93-9.14-3-13.54-.05,0-50.68,31.14-93.89,40l-.73.22c2.07,5.87,4.19,11.83,6.39,17.93C305.36,325.1,352,295.14,352,295.12Z"/><path class="cls-3" d="M356.5,264.1s43-24.92,68.17-59.9c-8.47-33.65-26.91-63.26-34.58-74.61-26,37-64.28,57.18-64.28,57.18h0c16.25,35.27,25.46,60.29,30.69,77.33Z"/><path class="cls-3" d="M72.09,295.53c.31.37,15.41,18.15,59.58,24.07a291.84,291.84,0,0,1-18-81.33h0c-35-5.77-53.84-23.8-53.84-23.8A207.14,207.14,0,0,0,72.09,295.53Z"/><path class="cls-3" d="M125.08,240.17c.94,13.44,4.79,44.06,20.33,81.35.07,0,47.54,6.18,92.25-7.13l.46-.11c-7.45-20.16-17.41-48.77-26.69-80.94h0C173.59,243.5,125.08,240.17,125.08,240.17Z"/><path class="cls-3" d="M83.34,132.56c-10.26,18.34-18.37,40.63-22,67.5C81.26,222.3,113,226.2,113,226.2a305.13,305.13,0,0,1,7.22-76C111.38,148.77,92.34,144.39,83.34,132.56Z"/><path class="cls-3" d="M202.67,45.62c26.07,11.77,49.28,33.26,68.19,55.66C280.1,96.2,301.81,83,315.72,64.45,258.33,36.65,202.67,45.62,202.67,45.62Z"/><path class="cls-3" d="M212.36,37c45.19-1.72,80.88,7.37,108.18,19.89,3.53-5.57,12-19.34,2.47-33.64C264.23,10.28,212.36,37,212.36,37Z"/><path class="cls-3" d="M89.64,122.18c3.14,4.66,12.11,14.33,33.39,16.64,8-28.93,22-59.49,46.44-82.79C169.47,56,122.26,72.37,89.64,122.18Z"/><path class="cls-3" d="M200.27,133.28c11.73-3,39.54-11.22,60.4-25.44C221.6,60,191.53,51.13,191.53,51.13S188.62,74.08,200.27,133.28Z"/><path class="cls-3" d="M248.82,3.34q-6,0-11.82.35l17.43-.27C252.56,3.37,250.7,3.34,248.82,3.34Z"/><path class="cls-3" d="M316.36,15.07A199.25,199.25,0,0,0,258.13,3.55c-6.87,1-31.43,5.9-53.74,28.59C245.13,12.89,295.62,13.72,316.36,15.07Z"/><path class="cls-3" d="M192.14,32.75s21-21.61,44.53-29a199,199,0,0,0-35.86,5.46C200.05,9.61,189.67,15.89,192.14,32.75Z"/><path class="cls-3" d="M188.93,12.49l11.49-3.22C196.55,10.23,192.71,11.3,188.93,12.49Z"/><path class="cls-3" d="M181.22,34.93s0-14.17,7.64-22.42A200.4,200.4,0,0,0,152.78,27.9l3.9-.34S173.25,29.43,181.22,34.93Z"/><path class="cls-3" d="M136.18,38.06a205.69,205.69,0,0,0-29.63,24.5c14.74-8.72,40.84-21.86,64.27-21.89C170.82,40.67,155.07,26.92,136.18,38.06Z"/><path class="cls-3" d="M200.86,9.14l-.44.13.39-.1Z"/><path class="cls-3" d="M188.86,12.51h0l.07,0Z"/><path class="cls-3" d="M236.72,3.7h-.05l.33,0Z"/><path class="cls-3" d="M260,3.34l-5.58.08,3.7.13C259.35,3.38,260,3.34,260,3.34Z"/><path class="cls-3" d="M109.12,363.33a192,192,0,0,1-38.67-55.52h0s-4.36-4.11-5.67-6.64A208.86,208.86,0,0,0,109.12,363.33Z"/><path class="cls-3" d="M61.84,285.52h0c-7.08-22.36-11-48.77-9-79.51h0c-3.18-4.24-6.77-14.41-6.85-14.65q-1,10-1,20.32a212.73,212.73,0,0,0,8.63,60.17C53.78,272.05,57.21,280.47,61.84,285.52Z"/><path class="cls-3" d="M78.28,125.59c-2-3.08-4.5-9.54-3.52-22.24a209.45,209.45,0,0,0-23.37,56.7c-2.87,22.67,3.32,28.68,3.32,28.68A186.14,186.14,0,0,1,78.28,125.59Z"/><path class="cls-3" d="M84.91,115.22c16.2-23.59,40.72-47.82,77.82-65.93,0,0-44.27,4.3-74.54,36.16C88,85.77,78.18,102.6,84.91,115.22Z"/><polygon class="cls-3" points="202.56 45.62 202.67 45.62 202.63 45.56 202.56 45.62"/><polygon class="cls-3" points="88.18 85.46 88.19 85.45 88.19 85.44 88.18 85.46"/><path class="cls-3" d="M74.76,103.34h0v0Z"/><path class="cls-3" d="M187.54,397c4.37-1,7.47-1.84,7.47-1.84L187.54,397Z"/><path class="cls-3" d="M409.51,339.76l.11-.16-.06.07Z"/><path class="cls-3" d="M425.76,315l.2-.36c-.1.16-.19.33-.28.49Z"/><path class="cls-3" d="M497.13,101.28C471.17,77.81,423.75,91,423.75,91l5.3,8.63c36.57-6.09,54.18,3.63,54.18,3.63C520,123.53,490,174.43,490,174.43a92.73,92.73,0,0,1-6.92,12.44,16.56,16.56,0,0,0-18.88,24.86c-6.76,8-12.05,13.5-12.05,13.5-39.36,41.87-74.07,63.57-74.07,63.57-65.62,48.44-133.69,70.52-133.69,70.52-50.06,18.93-107.86,25.8-108.38,25.86h0c-.73.08-49.1,5.41-85.73-6.73,0-.24,0-.49,0-.73a16.26,16.26,0,0,0-25.35-12.86A43.39,43.39,0,0,1,14.1,351s-14.1-28.91,31-77.31l-2.76-10.38S9.2,292.17,3.06,331.42c0,0-5.13,23.17,15.56,41.59a16.26,16.26,0,0,0,28.32,15.16c12.47,3.94,28.38,6.56,48.67,7,0,0,30.81,1.42,52.53-2.36.37,0,65.45-8.15,129-36.28,0,0,56.3-23.87,98.06-53.94,0,0,45.66-28.54,75.29-61.49,8.16-8.31,15.18-16,21.21-23.17a16.55,16.55,0,0,0,19.37-25.45c15.92-23.82,17.47-36.24,17.47-36.24C519.21,117.27,497.13,101.28,497.13,101.28Z"/></g></g></svg>