<svg id="Layer_1" data-name="Layer 1" xmlns="http://www.w3.org/2000/svg" viewBox="0 0 2260.67 422.88"><defs><style>.cls-1{opacity:0.3;}.cls-2{fill:#fff;}.cls-3{fill:none;stroke:#fff;stroke-miterlimit:10;stroke-width:5px;}</style></defs><g class="cls-1"><path class="cls-2" d="M-677.62,933.5a138.55,138.55,0,0,0,55.82-3.67c-4.88-28.31-7.69-56-6.88-80.46C-628.68,849.37-661.53,873-677.62,933.5Z" transform="translate(810.4 -793.34)"/><path class="cls-2" d="M-680.36,945c-4.54,21.3-7,46.65-5.52,76.52,40.81,3.72,84.11-4.69,84.11-4.69h0c-6.77-24.27-13.18-50.25-18.05-76C-630.93,943.39-655.9,948.12-680.36,945Z" transform="translate(810.4 -793.34)"/><path class="cls-2" d="M-421.91,902.27c11.6-19.11,8.31-40.3,8.28-40.48a205.82,205.82,0,0,0-36.88-31.45,141.11,141.11,0,0,0-23.68-10.13c2.22,5.71,4.05,17.3-5.1,35.27C-448.06,872.06-429.64,892.41-421.91,902.27Z" transform="translate(810.4 -793.34)"/><path class="cls-2" d="M-542.38,910.5c-12.13,6.41-41.08,21-65.45,27.33,4.4,20.75,10.46,45.46,18.78,74.55,32.78-4.76,88-35.47,88-35.49C-515.16,949.63-529.19,927.85-542.38,910.5Z" transform="translate(810.4 -793.34)"/><path class="cls-2" d="M-427.84,912.52a186.36,186.36,0,0,0-56.25-49.18c-5.51,7.41-18.92,22.4-47.6,40.92a437.47,437.47,0,0,1,41.92,65.08C-454,951-427.85,912.54-427.84,912.52Z" transform="translate(810.4 -793.34)"/><path class="cls-2" d="M-464.45,1063.16c-10.81-38.93-25.53-66.53-31.17-76.3-47.29,29.17-89.91,37.25-90,37.27,7.08,24,15.64,50.78,26,80.6C-559.56,1104.7-501.43,1088.92-464.45,1063.16Z" transform="translate(810.4 -793.34)"/><path class="cls-2" d="M-414.28,913h0a261.16,261.16,0,0,1,35.2,74.89h0a85.61,85.61,0,0,0,14.43-36.57,209.62,209.62,0,0,0-37.25-75.73C-405.21,904.54-414.28,913-414.28,913Z" transform="translate(810.4 -793.34)"/><path class="cls-2" d="M-381.35,1030.73a122.82,122.82,0,0,0-1.39-18.35c-.05.06-24.32,31-67.9,56.51,1.47,5.71,2.34,10,2.85,13.12A470.25,470.25,0,0,0-381.35,1030.73Z" transform="translate(810.4 -793.34)"/><path class="cls-2" d="M-683.61,1166.15c6.28,1.22,31.19-3,31.19-3h0a241.09,241.09,0,0,1-21.19-37.71h0s-34-3.14-57.32-19.22h0A178.53,178.53,0,0,0-683.61,1166.15Z" transform="translate(810.4 -793.34)"/><path class="cls-2" d="M-560.5,1137.94s-2.93-7-7.53-19h0s-41.57,11.46-91.53,8.2a306.64,306.64,0,0,0,19.24,34.8A623.24,623.24,0,0,0-560.5,1137.94Z" transform="translate(810.4 -793.34)"/><path class="cls-2" d="M-372.32,1021.64c4.16-2.21,14.23-14.94,14.48-15.25,0-.45,0-.91,0-1.37a214.7,214.7,0,0,0-1.95-28.87c-.16.42-6.4,16.5-15.5,27.14h0A182.62,182.62,0,0,1-372.32,1021.64Z" transform="translate(810.4 -793.34)"/><path class="cls-2" d="M-442.45,1114.94c4.82,48.22-4.29,62-4.61,62.41A207,207,0,0,0-400.83,1133c.94-1.66,14.9-26.71,17.86-63.44C-383,1069.56-405.66,1091.64-442.45,1114.94Z" transform="translate(810.4 -793.34)"/><path class="cls-2" d="M-384.44,1108a210.26,210.26,0,0,0,21.33-55.72l-11.27,10S-373.43,1087.33-384.44,1108Z" transform="translate(810.4 -793.34)"/><path class="cls-2" d="M-536.28,1164c18.1,36.8,27.63,42,27.94,42.18a200.45,200.45,0,0,0,46-19.15c15.87-20.65,9.49-65.34,9.49-65.34S-497.65,1149.29-536.28,1164Z" transform="translate(810.4 -793.34)"/><path class="cls-2" d="M-547.45,1168.15c-33.1,12-58,18.17-67.94,20.38,0,0,14.77,16.38,46.51,24.7q3.64.13,7.3.14a200.2,200.2,0,0,0,40.12-4c-12.16-12.32-26-41.18-26-41.18Z" transform="translate(810.4 -793.34)"/><path class="cls-2" d="M-647.76,1193.86a199.37,199.37,0,0,0,48.71,16c-.22-.1-22.69-10.31-23.81-19.47C-630.56,1192.17-642.2,1194.52-647.76,1193.86Z" transform="translate(810.4 -793.34)"/><path class="cls-2" d="M-458.4,1088.46q-1.39-6.95-3-13.54c-.06,0-50.69,31.14-93.9,40l-.73.23q3.1,8.8,6.39,17.92C-505,1118.44-458.43,1088.48-458.4,1088.46Z" transform="translate(810.4 -793.34)"/><path class="cls-2" d="M-453.9,1057.43s43-24.91,68.17-59.89c-8.47-33.65-26.91-63.26-34.57-74.61-26,37-64.28,57.17-64.28,57.17h0c16.26,35.28,25.47,60.3,30.69,77.34Z" transform="translate(810.4 -793.34)"/><path class="cls-2" d="M-738.31,1088.87c.32.37,15.42,18.14,59.58,24.07a292.2,292.2,0,0,1-18-81.33h0c-35-5.76-53.85-23.79-53.85-23.79A207.14,207.14,0,0,0-738.31,1088.87Z" transform="translate(810.4 -793.34)"/><path class="cls-2" d="M-685.32,1033.51c1,13.44,4.79,44.06,20.34,81.35.07,0,47.53,6.18,92.24-7.14l.46-.1c-7.45-20.16-17.4-48.78-26.68-80.94h0C-636.81,1036.83-685.31,1033.51-685.32,1033.51Z" transform="translate(810.4 -793.34)"/><path class="cls-2" d="M-727.06,925.9c-10.26,18.34-18.37,40.63-22,67.5,19.93,22.23,51.62,26.14,51.62,26.14a304.43,304.43,0,0,1,7.21-76C-699,942.1-718.06,937.73-727.06,925.9Z" transform="translate(810.4 -793.34)"/><path class="cls-2" d="M-607.72,839c26.06,11.77,49.27,33.25,68.18,55.66,9.25-5.08,30.95-18.28,44.86-36.83C-552.06,830-607.72,839-607.72,839Z" transform="translate(810.4 -793.34)"/><path class="cls-2" d="M-598,830.38c45.19-1.73,80.88,7.37,108.18,19.88,3.54-5.56,12-19.33,2.48-33.63C-546.16,803.62-598,830.38-598,830.38Z" transform="translate(810.4 -793.34)"/><path class="cls-2" d="M-720.76,915.52c3.14,4.66,12.11,14.33,33.39,16.64,8-28.93,22-59.49,46.44-82.79C-640.93,849.37-688.14,865.7-720.76,915.52Z" transform="translate(810.4 -793.34)"/><path class="cls-2" d="M-610.12,926.62c11.73-3,39.53-11.22,60.4-25.44-39.07-47.83-69.15-56.71-69.15-56.71S-621.78,867.42-610.12,926.62Z" transform="translate(810.4 -793.34)"/><path class="cls-2" d="M-561.58,796.67c-4,0-7.9.13-11.82.36l17.43-.27C-557.83,796.71-559.7,796.67-561.58,796.67Z" transform="translate(810.4 -793.34)"/><path class="cls-2" d="M-494,808.41a199.25,199.25,0,0,0-58.22-11.52c-6.87,1-31.43,5.89-53.74,28.58C-565.27,806.23-514.77,807.06-494,808.41Z" transform="translate(810.4 -793.34)"/><path class="cls-2" d="M-618.26,826.09s21-21.61,44.53-29a198.92,198.92,0,0,0-35.85,5.46C-610.35,802.94-620.73,809.23-618.26,826.09Z" transform="translate(810.4 -793.34)"/><path class="cls-2" d="M-621.47,805.83l11.49-3.22Q-615.79,804.05-621.47,805.83Z" transform="translate(810.4 -793.34)"/><path class="cls-2" d="M-629.18,828.27s0-14.17,7.64-22.42a199.68,199.68,0,0,0-36.08,15.39l3.9-.34S-637.14,822.77-629.18,828.27Z" transform="translate(810.4 -793.34)"/><path class="cls-2" d="M-674.22,831.4a205.69,205.69,0,0,0-29.63,24.5C-689.11,847.18-663,834-639.58,834-639.58,834-655.33,820.26-674.22,831.4Z" transform="translate(810.4 -793.34)"/><path class="cls-2" d="M-609.54,802.48l-.44.13.4-.1Z" transform="translate(810.4 -793.34)"/><path class="cls-2" d="M-621.53,805.85h0l.07,0Z" transform="translate(810.4 -793.34)"/><path class="cls-2" d="M-573.68,797h-.05l.33,0Z" transform="translate(810.4 -793.34)"/><path class="cls-2" d="M-550.38,796.67l-5.59.09c1.24,0,2.47.08,3.71.13C-551,796.72-550.38,796.67-550.38,796.67Z" transform="translate(810.4 -793.34)"/><path class="cls-2" d="M-701.28,1156.67a192,192,0,0,1-38.66-55.52h0s-4.36-4.11-5.67-6.64A208.86,208.86,0,0,0-701.28,1156.67Z" transform="translate(810.4 -793.34)"/><path class="cls-2" d="M-748.55,1078.86h0c-7.07-22.37-11-48.77-9-79.52h0c-3.18-4.25-6.77-14.42-6.85-14.65-.63,6.69-1,13.46-1,20.32a212.37,212.37,0,0,0,8.64,60.17C-756.61,1065.39-753.19,1073.81-748.55,1078.86Z" transform="translate(810.4 -793.34)"/><path class="cls-2" d="M-732.12,918.93c-2-3.09-4.5-9.54-3.52-22.24A209.64,209.64,0,0,0-759,953.39c-2.87,22.67,3.32,28.68,3.32,28.68A186.14,186.14,0,0,1-732.12,918.93Z" transform="translate(810.4 -793.34)"/><path class="cls-2" d="M-725.48,908.56c16.19-23.59,40.72-47.82,77.81-65.93,0,0-44.26,4.29-74.54,36.16C-722.4,879.11-732.22,895.93-725.48,908.56Z" transform="translate(810.4 -793.34)"/><polygon class="cls-2" points="202.56 45.62 202.67 45.62 202.63 45.56 202.56 45.62"/><polygon class="cls-2" points="88.18 85.46 88.19 85.45 88.19 85.44 88.18 85.46"/><path class="cls-2" d="M-735.64,896.68h0l0,0Z" transform="translate(810.4 -793.34)"/><path class="cls-2" d="M-622.86,1190.38c4.37-1,7.47-1.85,7.47-1.85l-7.47,1.85Z" transform="translate(810.4 -793.34)"/><path class="cls-2" d="M-400.89,1133.09l.11-.16-.05.07Z" transform="translate(810.4 -793.34)"/><path class="cls-2" d="M-384.63,1108.34c.06-.12.12-.24.19-.36-.09.16-.19.32-.28.49Z" transform="translate(810.4 -793.34)"/><path class="cls-2" d="M-313.27,894.62c-26-23.47-73.38-10.25-73.38-10.25l5.3,8.63c36.58-6.09,54.18,3.63,54.18,3.63,36.8,20.24,6.75,71.14,6.75,71.14a93,93,0,0,1-6.91,12.43,16.83,16.83,0,0,0-5.05-.78A16.56,16.56,0,0,0-348.94,996a16.46,16.46,0,0,0,2.73,9.09c-6.77,8-12.06,13.49-12.06,13.49-39.35,41.88-74.07,63.58-74.07,63.58-65.61,48.44-133.68,70.52-133.68,70.52-50.06,18.92-107.87,25.8-108.39,25.86l0,0v0c-.72.08-49.1,5.41-85.73-6.73,0-.24,0-.49,0-.73A16.27,16.27,0,0,0-777,1155.43a16.2,16.2,0,0,0-8.47,2.77,43.36,43.36,0,0,1-10.78-13.82s-14.11-28.91,31-77.31l-2.76-10.38s-33.11,28.82-39.24,68.07c0,0-5.14,23.17,15.56,41.59a16.15,16.15,0,0,0-.89,6,16.26,16.26,0,0,0,16.88,15.62,16.21,16.21,0,0,0,12.33-6.42c12.47,3.93,28.38,6.55,48.67,7,0,0,30.8,1.42,52.52-2.35.37,0,65.45-8.15,129-36.28,0,0,56.29-23.87,98.05-53.94,0,0,45.66-28.54,75.29-61.5,8.16-8.31,15.18-16,21.22-23.16a16.53,16.53,0,0,0,6.27,1.23A16.55,16.55,0,0,0-315.82,996a16.53,16.53,0,0,0-3.47-10.14c15.92-23.81,17.47-36.23,17.47-36.23C-291.19,910.61-313.27,894.62-313.27,894.62Z" transform="translate(810.4 -793.34)"/></g><path class="cls-3" d="M-677.62,933.5a138.55,138.55,0,0,0,55.82-3.67c-4.88-28.31-7.69-56-6.88-80.46C-628.68,849.37-661.53,873-677.62,933.5Z" transform="translate(810.4 -793.34)"/><path class="cls-3" d="M-680.36,945c-4.54,21.3-7,46.65-5.52,76.52,40.81,3.72,84.11-4.69,84.11-4.69h0c-6.77-24.27-13.18-50.25-18.05-76C-630.93,943.39-655.9,948.12-680.36,945Z" transform="translate(810.4 -793.34)"/><path class="cls-3" d="M-421.91,902.27c11.6-19.11,8.31-40.3,8.28-40.48a205.82,205.82,0,0,0-36.88-31.45,141.11,141.11,0,0,0-23.68-10.13c2.22,5.71,4.05,17.3-5.1,35.27C-448.06,872.06-429.64,892.41-421.91,902.27Z" transform="translate(810.4 -793.34)"/><path class="cls-3" d="M-542.38,910.5c-12.13,6.41-41.08,21-65.45,27.33,4.4,20.75,10.46,45.46,18.78,74.55,32.78-4.76,88-35.47,88-35.49C-515.16,949.63-529.19,927.85-542.38,910.5Z" transform="translate(810.4 -793.34)"/><path class="cls-3" d="M-427.84,912.52a186.36,186.36,0,0,0-56.25-49.18c-5.51,7.41-18.92,22.4-47.6,40.92a437.47,437.47,0,0,1,41.92,65.08C-454,951-427.85,912.54-427.84,912.52Z" transform="translate(810.4 -793.34)"/><path class="cls-3" d="M-464.45,1063.16c-10.81-38.93-25.53-66.53-31.17-76.3-47.29,29.17-89.91,37.25-90,37.27,7.08,24,15.64,50.78,26,80.6C-559.56,1104.7-501.43,1088.92-464.45,1063.16Z" transform="translate(810.4 -793.34)"/><path class="cls-3" d="M-414.28,913h0a261.16,261.16,0,0,1,35.2,74.89h0a85.61,85.61,0,0,0,14.43-36.57,209.62,209.62,0,0,0-37.25-75.73C-405.21,904.54-414.28,913-414.28,913Z" transform="translate(810.4 -793.34)"/><path class="cls-3" d="M-381.35,1030.73a122.82,122.82,0,0,0-1.39-18.35c-.05.06-24.32,31-67.9,56.51,1.47,5.71,2.34,10,2.85,13.12A470.25,470.25,0,0,0-381.35,1030.73Z" transform="translate(810.4 -793.34)"/><path class="cls-3" d="M-683.61,1166.15c6.28,1.22,31.19-3,31.19-3h0a241.09,241.09,0,0,1-21.19-37.71h0s-34-3.14-57.32-19.22h0A178.53,178.53,0,0,0-683.61,1166.15Z" transform="translate(810.4 -793.34)"/><path class="cls-3" d="M-560.5,1137.94s-2.93-7-7.53-19h0s-41.57,11.46-91.53,8.2a306.64,306.64,0,0,0,19.24,34.8A623.24,623.24,0,0,0-560.5,1137.94Z" transform="translate(810.4 -793.34)"/><path class="cls-3" d="M-372.32,1021.64c4.16-2.21,14.23-14.94,14.48-15.25,0-.45,0-.91,0-1.37a214.7,214.7,0,0,0-1.95-28.87c-.16.42-6.4,16.5-15.5,27.14h0A182.62,182.62,0,0,1-372.32,1021.64Z" transform="translate(810.4 -793.34)"/><path class="cls-3" d="M-442.45,1114.94c4.82,48.22-4.29,62-4.61,62.41A207,207,0,0,0-400.83,1133c.94-1.66,14.9-26.71,17.86-63.44C-383,1069.56-405.66,1091.64-442.45,1114.94Z" transform="translate(810.4 -793.34)"/><path class="cls-3" d="M-384.44,1108a210.26,210.26,0,0,0,21.33-55.72l-11.27,10S-373.43,1087.33-384.44,1108Z" transform="translate(810.4 -793.34)"/><path class="cls-3" d="M-536.28,1164c18.1,36.8,27.63,42,27.94,42.18a200.45,200.45,0,0,0,46-19.15c15.87-20.65,9.49-65.34,9.49-65.34S-497.65,1149.29-536.28,1164Z" transform="translate(810.4 -793.34)"/><path class="cls-3" d="M-547.45,1168.15c-33.1,12-58,18.17-67.94,20.38,0,0,14.77,16.38,46.51,24.7q3.64.13,7.3.14a200.2,200.2,0,0,0,40.12-4c-12.16-12.32-26-41.18-26-41.18Z" transform="translate(810.4 -793.34)"/><path class="cls-3" d="M-647.76,1193.86a199.37,199.37,0,0,0,48.71,16c-.22-.1-22.69-10.31-23.81-19.47C-630.56,1192.17-642.2,1194.52-647.76,1193.86Z" transform="translate(810.4 -793.34)"/><path class="cls-3" d="M-458.4,1088.46q-1.39-6.95-3-13.54c-.06,0-50.69,31.14-93.9,40l-.73.23q3.1,8.8,6.39,17.92C-505,1118.44-458.43,1088.48-458.4,1088.46Z" transform="translate(810.4 -793.34)"/><path class="cls-3" d="M-453.9,1057.43s43-24.91,68.17-59.89c-8.47-33.65-26.91-63.26-34.57-74.61-26,37-64.28,57.17-64.28,57.17h0c16.26,35.28,25.47,60.3,30.69,77.34Z" transform="translate(810.4 -793.34)"/><path class="cls-3" d="M-738.31,1088.87c.32.37,15.42,18.14,59.58,24.07a292.2,292.2,0,0,1-18-81.33h0c-35-5.76-53.85-23.79-53.85-23.79A207.14,207.14,0,0,0-738.31,1088.87Z" transform="translate(810.4 -793.34)"/><path class="cls-3" d="M-685.32,1033.51c1,13.44,4.79,44.06,20.34,81.35.07,0,47.53,6.18,92.24-7.14l.46-.1c-7.45-20.16-17.4-48.78-26.68-80.94h0C-636.81,1036.83-685.31,1033.51-685.32,1033.51Z" transform="translate(810.4 -793.34)"/><path class="cls-3" d="M-727.06,925.9c-10.26,18.34-18.37,40.63-22,67.5,19.93,22.23,51.62,26.14,51.62,26.14a304.43,304.43,0,0,1,7.21-76C-699,942.1-718.06,937.73-727.06,925.9Z" transform="translate(810.4 -793.34)"/><path class="cls-3" d="M-607.72,839c26.06,11.77,49.27,33.25,68.18,55.66,9.25-5.08,30.95-18.28,44.86-36.83C-552.06,830-607.72,839-607.72,839Z" transform="translate(810.4 -793.34)"/><path class="cls-3" d="M-598,830.38c45.19-1.73,80.88,7.37,108.18,19.88,3.54-5.56,12-19.33,2.48-33.63C-546.16,803.62-598,830.38-598,830.38Z" transform="translate(810.4 -793.34)"/><path class="cls-3" d="M-720.76,915.52c3.14,4.66,12.11,14.33,33.39,16.64,8-28.93,22-59.49,46.44-82.79C-640.93,849.37-688.14,865.7-720.76,915.52Z" transform="translate(810.4 -793.34)"/><path class="cls-3" d="M-610.12,926.62c11.73-3,39.53-11.22,60.4-25.44-39.07-47.83-69.15-56.71-69.15-56.71S-621.78,867.42-610.12,926.62Z" transform="translate(810.4 -793.34)"/><path class="cls-3" d="M-561.58,796.67c-4,0-7.9.13-11.82.36l17.43-.27C-557.83,796.71-559.7,796.67-561.58,796.67Z" transform="translate(810.4 -793.34)"/><path class="cls-3" d="M-494,808.41a199.25,199.25,0,0,0-58.22-11.52c-6.87,1-31.43,5.89-53.74,28.58C-565.27,806.23-514.77,807.06-494,808.41Z" transform="translate(810.4 -793.34)"/><path class="cls-3" d="M-618.26,826.09s21-21.61,44.53-29a198.92,198.92,0,0,0-35.85,5.46C-610.35,802.94-620.73,809.23-618.26,826.09Z" transform="translate(810.4 -793.34)"/><path class="cls-3" d="M-621.47,805.83l11.49-3.22Q-615.79,804.05-621.47,805.83Z" transform="translate(810.4 -793.34)"/><path class="cls-3" d="M-629.18,828.27s0-14.17,7.64-22.42a199.68,199.68,0,0,0-36.08,15.39l3.9-.34S-637.14,822.77-629.18,828.27Z" transform="translate(810.4 -793.34)"/><path class="cls-3" d="M-674.22,831.4a205.69,205.69,0,0,0-29.63,24.5C-689.11,847.18-663,834-639.58,834-639.58,834-655.33,820.26-674.22,831.4Z" transform="translate(810.4 -793.34)"/><path class="cls-3" d="M-609.54,802.48l-.44.13.4-.1Z" transform="translate(810.4 -793.34)"/><path class="cls-3" d="M-621.53,805.85h0l.07,0Z" transform="translate(810.4 -793.34)"/><path class="cls-3" d="M-573.68,797h-.05l.33,0Z" transform="translate(810.4 -793.34)"/><path class="cls-3" d="M-550.38,796.67l-5.59.09c1.24,0,2.47.08,3.71.13C-551,796.72-550.38,796.67-550.38,796.67Z" transform="translate(810.4 -793.34)"/><path class="cls-3" d="M-701.28,1156.67a192,192,0,0,1-38.66-55.52h0s-4.36-4.11-5.67-6.64A208.86,208.86,0,0,0-701.28,1156.67Z" transform="translate(810.4 -793.34)"/><path class="cls-3" d="M-748.55,1078.86h0c-7.07-22.37-11-48.77-9-79.52h0c-3.18-4.25-6.77-14.42-6.85-14.65-.63,6.69-1,13.46-1,20.32a212.37,212.37,0,0,0,8.64,60.17C-756.61,1065.39-753.19,1073.81-748.55,1078.86Z" transform="translate(810.4 -793.34)"/><path class="cls-3" d="M-732.12,918.93c-2-3.09-4.5-9.54-3.52-22.24A209.64,209.64,0,0,0-759,953.39c-2.87,22.67,3.32,28.68,3.32,28.68A186.14,186.14,0,0,1-732.12,918.93Z" transform="translate(810.4 -793.34)"/><path class="cls-3" d="M-725.48,908.56c16.19-23.59,40.72-47.82,77.81-65.93,0,0-44.26,4.29-74.54,36.16C-722.4,879.11-732.22,895.93-725.48,908.56Z" transform="translate(810.4 -793.34)"/><polygon class="cls-3" points="202.56 45.62 202.67 45.62 202.63 45.56 202.56 45.62"/><polygon class="cls-3" points="88.18 85.46 88.19 85.45 88.19 85.44 88.18 85.46"/><path class="cls-3" d="M-735.64,896.68h0l0,0Z" transform="translate(810.4 -793.34)"/><path class="cls-3" d="M-622.86,1190.38c4.37-1,7.47-1.85,7.47-1.85l-7.47,1.85Z" transform="translate(810.4 -793.34)"/><path class="cls-3" d="M-400.89,1133.09l.11-.16-.05.07Z" transform="translate(810.4 -793.34)"/><path class="cls-3" d="M-384.63,1108.34c.06-.12.12-.24.19-.36-.09.16-.19.32-.28.49Z" transform="translate(810.4 -793.34)"/><path class="cls-3" d="M-313.27,894.62c-26-23.47-73.38-10.25-73.38-10.25l5.3,8.63c36.58-6.09,54.18,3.63,54.18,3.63,36.8,20.24,6.75,71.14,6.75,71.14a93,93,0,0,1-6.91,12.43,16.83,16.83,0,0,0-5.05-.78A16.56,16.56,0,0,0-348.94,996a16.46,16.46,0,0,0,2.73,9.09c-6.77,8-12.06,13.49-12.06,13.49-39.35,41.88-74.07,63.58-74.07,63.58-65.61,48.44-133.68,70.52-133.68,70.52-50.06,18.92-107.87,25.8-108.39,25.86l0,0v0c-.72.08-49.1,5.41-85.73-6.73,0-.24,0-.49,0-.73A16.27,16.27,0,0,0-777,1155.43a16.2,16.2,0,0,0-8.47,2.77,43.36,43.36,0,0,1-10.78-13.82s-14.11-28.91,31-77.31l-2.76-10.38s-33.11,28.82-39.24,68.07c0,0-5.14,23.17,15.56,41.59a16.15,16.15,0,0,0-.89,6,16.26,16.26,0,0,0,16.88,15.62,16.21,16.21,0,0,0,12.33-6.42c12.47,3.93,28.38,6.55,48.67,7,0,0,30.8,1.42,52.52-2.35.37,0,65.45-8.15,129-36.28,0,0,56.29-23.87,98.05-53.94,0,0,45.66-28.54,75.29-61.5,8.16-8.31,15.18-16,21.22-23.16a16.53,16.53,0,0,0,6.27,1.23A16.55,16.55,0,0,0-315.82,996a16.53,16.53,0,0,0-3.47-10.14c15.92-23.81,17.47-36.23,17.47-36.23C-291.19,910.61-313.27,894.62-313.27,894.62Z" transform="translate(810.4 -793.34)"/><path class="cls-2" d="M-94,1000.68V943.46h9.59v57.22a55.14,55.14,0,0,1-16.74,40.48,55.13,55.13,0,0,1-40.48,16.73,55.13,55.13,0,0,1-40.48-16.73,55.14,55.14,0,0,1-16.74-40.48V943.46h9.59v57.22a46.92,46.92,0,0,0,6.36,23.88,46.68,46.68,0,0,0,17.38,17.38,46.87,46.87,0,0,0,23.89,6.37,46.9,46.9,0,0,0,23.89-6.37,46.76,46.76,0,0,0,17.38-17.38A46.92,46.92,0,0,0-94,1000.68Z" transform="translate(810.4 -793.34)"/><path class="cls-2" d="M-39.11,960.19A55.18,55.18,0,0,1,1.38,943.46a55.19,55.19,0,0,1,40.48,16.73,55.15,55.15,0,0,1,16.73,40.49v57.21H49v-57.21a47.52,47.52,0,0,0-23.75-41.27A46.93,46.93,0,0,0,1.38,953a46.94,46.94,0,0,0-23.89,6.37,46.61,46.61,0,0,0-17.38,17.38,46.84,46.84,0,0,0-6.37,23.89v57.21h-9.58v-57.21A55.19,55.19,0,0,1-39.11,960.19Z" transform="translate(810.4 -793.34)"/><path class="cls-2" d="M87.2,1057.89V943.46h9.59v114.43Z" transform="translate(810.4 -793.34)"/><path class="cls-2" d="M189.77,1037.15l52.64-93.69H254l-64.22,114.43L125.39,943.46h11.73Z" transform="translate(810.4 -793.34)"/><path class="cls-2" d="M320.37,943.46h57.21V953H320.37a47.64,47.64,0,1,0,0,95.27h57.21v9.58H320.37a57.22,57.22,0,1,1,0-114.43Zm8.94,62.29a7.23,7.23,0,1,1,5.08,2.08A6.87,6.87,0,0,1,329.31,1005.75Z" transform="translate(810.4 -793.34)"/><path class="cls-2" d="M520.63,974.5a30.1,30.1,0,0,1-3.93,15.09,30.94,30.94,0,0,1-10.52,11.09,30.91,30.91,0,0,1,10.52,11.08,30.12,30.12,0,0,1,3.93,15.09v31h-9.58v-31a20.43,20.43,0,0,0-6.3-15.09,20.78,20.78,0,0,0-15.16-6.22H415.78v52.35h-9.59V995.81h83.4a20.78,20.78,0,0,0,15.16-6.22,20.43,20.43,0,0,0,6.3-15.09A21.51,21.51,0,0,0,489.59,953h-83.4v-9.58h83.4a31,31,0,0,1,31,31Z" transform="translate(810.4 -793.34)"/><path class="cls-2" d="M580.28,943.46h83.39V953H580.28a21.51,21.51,0,0,0-21.46,21.46,20.43,20.43,0,0,0,6.3,15.09,20.77,20.77,0,0,0,15.16,6.22h52.35a31,31,0,1,1,0,62.08H549.24v-9.58h83.39a21.48,21.48,0,0,0,21.46-21.46,20.46,20.46,0,0,0-6.29-15.09,20.79,20.79,0,0,0-15.17-6.22H580.28a31,31,0,1,1,0-62.08Z" transform="translate(810.4 -793.34)"/><path class="cls-2" d="M749.5,943.46h57.22V953H749.5a47.64,47.64,0,1,0,0,95.27h57.22v9.58H749.5a57.22,57.22,0,1,1,0-114.43Zm8.94,62.29a7.24,7.24,0,1,1,5.08,2.08A6.89,6.89,0,0,1,758.44,1005.75Z" transform="translate(810.4 -793.34)"/><path class="cls-2" d="M975.94,1048.31h31v9.58H892.55V943.46h9.58v104.85Z" transform="translate(810.4 -793.34)"/><path class="cls-2" d="M1035.59,1057.89,1100,943.46l64.23,114.43h-11.73L1100,964.2l-52.64,93.69Z" transform="translate(810.4 -793.34)"/><path class="cls-2" d="M1292.78,1000.68a30.91,30.91,0,0,1,10.52,11.08,31,31,0,0,1-27.11,46.13H1192.8v-9.58h83.39a21.49,21.49,0,0,0,21.46-21.46,20.43,20.43,0,0,0-6.3-15.09,20.77,20.77,0,0,0-15.16-6.22H1192.8v-9.73h83.39a20.77,20.77,0,0,0,15.16-6.22,20.43,20.43,0,0,0,6.3-15.09A21.51,21.51,0,0,0,1276.19,953H1192.8v-9.58h83.39a31,31,0,0,1,27.11,46.13A30.94,30.94,0,0,1,1292.78,1000.68Z" transform="translate(810.4 -793.34)"/><path class="cls-2" d="M1366.88,943.46h83.4V953h-83.4a21.49,21.49,0,0,0-21.45,21.46,20.42,20.42,0,0,0,6.29,15.09,20.77,20.77,0,0,0,15.16,6.22h52.36a31,31,0,1,1,0,62.08h-83.4v-9.58h83.4a21.48,21.48,0,0,0,21.45-21.46,20.46,20.46,0,0,0-6.29-15.09,20.78,20.78,0,0,0-15.16-6.22h-52.36a31,31,0,1,1,0-62.08Z" transform="translate(810.4 -793.34)"/></svg>